<svg width="160" height="160" viewBox="0 0 160 160" fill="none" xmlns="http://www.w3.org/2000/svg">
  <defs>
    <radialGradient id="mz-glow" cx="0" cy="0" r="1" gradientUnits="userSpaceOnUse" gradientTransform="translate(80 80) scale(80)">
      <stop offset="0" stop-color="#1D8A7A" stop-opacity="0.9" />
      <stop offset="0.55" stop-color="#145E57" stop-opacity="0.72" />
      <stop offset="1" stop-color="#0F2F3B" stop-opacity="0.9" />
    </radialGradient>
    <linearGradient id="mz-frame" x1="0" y1="0" x2="160" y2="160" gradientUnits="userSpaceOnUse">
      <stop offset="0" stop-color="#F2B263" />
      <stop offset="0.5" stop-color="#F7E3B2" />
      <stop offset="1" stop-color="#3CB29C" />
    </linearGradient>
    <filter id="mz-shadow" x="0" y="0" width="160" height="160" filterUnits="userSpaceOnUse" color-interpolation-filters="sRGB">
      <feOffset dy="6" in="SourceAlpha" result="offset" />
      <feGaussianBlur stdDeviation="8" in="offset" result="blur" />
      <feColorMatrix in="blur" values="0 0 0 0 0.05 0 0 0 0 0.16 0 0 0 0 0.18 0 0 0 0.28 0" />
      <feBlend in="SourceGraphic" in2="blur" mode="normal" />
    </filter>
  </defs>
  <g filter="url(#mz-shadow)">
    <path d="M80 8L116 44L152 80L116 116L80 152L44 116L8 80L44 44L80 8Z" fill="url(#mz-glow)" stroke="url(#mz-frame)" stroke-width="4" stroke-linejoin="round" />
    <path d="M80 28L112 60L132 80L112 100L80 132L48 100L28 80L48 60L80 28Z" fill="rgba(15,47,59,0.28)" stroke="rgba(255,255,255,0.16)" stroke-width="3" stroke-linejoin="round" />
    <circle cx="80" cy="80" r="28" fill="rgba(255,255,255,0.06)" stroke="rgba(255,255,255,0.32)" stroke-width="2" />
    <path d="M48 112V52L64 92L80 52V112" stroke="#F7E3B2" stroke-width="6" stroke-linecap="round" stroke-linejoin="round" />
    <path d="M92 52H128L92 112H128" stroke="#F2C98D" stroke-width="6" stroke-linecap="round" stroke-linejoin="round" />
  </g>
</svg>

